<svg xmlns="http://www.w3.org/2000/svg" style="display: none;">
  <defs>
    <symbol id="lista" viewBox="0 0 168 159" fill="none">
      <path fill-rule="evenodd" clip-rule="evenodd"
        d="M68.6665 143.771C68.6665 140.216 71.5487 137.334 75.1037 137.334H160.937C164.493 137.334 167.375 140.216 167.375 143.771C167.375 147.326 164.493 150.209 160.937 150.209H75.1037C71.5487 150.209 68.6665 147.326 68.6665 143.771Z"
        fill="currentColor" />
      <path fill-rule="evenodd" clip-rule="evenodd"
        d="M68.6665 83.6875C68.6665 80.1321 71.5487 77.25 75.1037 77.25H160.937C164.493 77.25 167.375 80.1321 167.375 83.6875C167.375 87.2429 164.493 90.125 160.937 90.125H75.1037C71.5487 90.125 68.6665 87.2429 68.6665 83.6875Z"
        fill="currentColor" />
      <path fill-rule="evenodd" clip-rule="evenodd"
        d="M68.6665 23.604C68.6665 20.0486 71.5487 17.1665 75.1037 17.1665H160.937C164.493 17.1665 167.375 20.0486 167.375 23.604C167.375 27.1593 164.493 30.0415 160.937 30.0415H75.1037C71.5487 30.0415 68.6665 27.1593 68.6665 23.604Z"
        fill="currentColor" />
      <path fill-rule="evenodd" clip-rule="evenodd"
        d="M45.3228 1.88553C47.8369 4.39948 47.8369 8.47547 45.3228 10.9895L19.5728 36.7395C17.0589 39.2535 12.9829 39.2535 10.4688 36.7395L1.88546 28.1561C-0.628487 25.6422 -0.628487 21.5662 1.88546 19.0522C4.3995 16.5381 8.4755 16.5381 10.9895 19.0522L15.0209 23.0835L36.2188 1.88553C38.7329 -0.628511 42.8089 -0.628511 45.3228 1.88553Z"
        fill="currentColor" />
      <path fill-rule="evenodd" clip-rule="evenodd"
        d="M45.3228 61.969C47.8369 64.483 47.8369 68.559 45.3228 71.0727L19.5728 96.8227C17.0589 99.3368 12.9829 99.3368 10.4688 96.8227L1.88546 88.24C-0.628487 85.7258 -0.628487 81.6499 1.88546 79.1357C4.3995 76.6216 8.4755 76.6216 10.9895 79.1357L15.0209 83.1668L36.2188 61.969C38.7329 59.455 42.8089 59.455 45.3228 61.969Z"
        fill="currentColor" />
      <path fill-rule="evenodd" clip-rule="evenodd"
        d="M45.3228 122.052C47.8369 124.566 47.8369 128.642 45.3228 131.156L19.5728 156.906C17.0589 159.42 12.9829 159.42 10.4688 156.906L1.88546 148.323C-0.628487 145.809 -0.628487 141.733 1.88546 139.218C4.3995 136.704 8.4755 136.704 10.9895 139.218L15.0209 143.25L36.2188 122.052C38.7329 119.538 42.8089 119.538 45.3228 122.052Z"
        fill="currentColor" />
    </symbol>
  </defs>
</svg>
