<svg width="22" height="22" viewBox="0 0 22 22" fill="none" xmlns="http://www.w3.org/2000/svg">
<path fill-rule="evenodd" clip-rule="evenodd" d="M16.4175 2.52081C15.4864 2.52081 14.74 3.26718 14.74 4.19831C14.74 5.09474 15.4295 5.81721 16.3022 5.87382C16.3754 5.86732 16.4504 5.86732 16.5236 5.87382C17.3949 5.81726 18.0873 5.09573 18.095 4.19586C18.0937 3.27327 17.3461 2.52081 16.4175 2.52081ZM13.365 4.19831C13.365 2.50779 14.727 1.14581 16.4175 1.14581C18.1098 1.14581 19.47 2.51869 19.47 4.19831V4.20323H19.47C19.4582 5.85224 18.1602 7.19112 16.5249 7.25037C16.4875 7.25172 16.45 7.25002 16.4129 7.24528C16.3758 7.25002 16.3384 7.25172 16.3009 7.25037C14.6665 7.19115 13.365 5.85201 13.365 4.19831Z" fill="#F1F1F1"/>
<path fill-rule="evenodd" clip-rule="evenodd" d="M15.4097 8.11362C16.8033 7.86948 18.3924 8.10224 19.5476 8.86879L19.5489 8.86961C20.3385 9.39601 20.8244 10.1588 20.8244 11.0091C20.8244 11.8595 20.3385 12.6223 19.5489 13.1487C18.4022 13.9161 16.8321 14.148 15.442 13.9147C15.0676 13.8518 14.815 13.4973 14.8778 13.1228C14.9407 12.7484 15.2952 12.4958 15.6697 12.5586C16.7907 12.7468 17.9883 12.539 18.7849 12.0054L18.7861 12.0046C19.289 11.6693 19.4494 11.2954 19.4494 11.0091C19.4494 10.723 19.2892 10.3493 18.7868 10.0141C17.9803 9.47928 16.7647 9.27218 15.647 9.46799C15.273 9.53351 14.9167 9.28344 14.8511 8.90944C14.7856 8.53544 15.0357 8.17913 15.4097 8.11362Z" fill="#F1F1F1"/>
<path fill-rule="evenodd" clip-rule="evenodd" d="M2.5025 4.19831C2.5025 2.51869 3.86274 1.14581 5.555 1.14581C7.24553 1.14581 8.6075 2.50779 8.6075 4.19831C8.6075 5.85201 7.30598 7.19115 5.67156 7.25037C5.63415 7.25172 5.5967 7.25002 5.55959 7.24528C5.52248 7.25002 5.48503 7.25172 5.44761 7.25037C3.81234 7.19112 2.5143 5.85224 2.50252 4.20323L2.5025 4.19831ZM3.8775 4.19587C3.88518 5.09573 4.57763 5.81726 5.4489 5.87382C5.52211 5.86732 5.59708 5.86732 5.67028 5.87382C6.54305 5.81721 7.2325 5.09474 7.2325 4.19831C7.2325 3.26718 6.48614 2.52081 5.555 2.52081C4.62642 2.52081 3.87882 3.27328 3.8775 4.19587Z" fill="#F1F1F1"/>
<path fill-rule="evenodd" clip-rule="evenodd" d="M3.18574 10.0141C3.99218 9.47928 5.20778 9.27218 6.32554 9.46799C6.69954 9.53351 7.05584 9.28344 7.12135 8.90944C7.18687 8.53544 6.9368 8.17913 6.5628 8.11362C5.16918 7.86948 3.58011 8.10224 2.42488 8.86879L2.42488 8.86879L2.42365 8.86961C1.63404 9.39601 1.14813 10.1588 1.14813 11.0091C1.14813 11.8593 1.63379 12.6219 2.42303 13.1483C3.56974 13.9161 5.14013 14.1481 6.5305 13.9147C6.90495 13.8518 7.15755 13.4973 7.09468 13.1228C7.03182 12.7484 6.6773 12.4958 6.30284 12.5586C5.18179 12.7468 3.98416 12.539 3.1876 12.0054L3.18636 12.0046C2.68346 11.6693 2.52313 11.2954 2.52313 11.0091C2.52313 10.723 2.68333 10.3493 3.18574 10.0141Z" fill="#F1F1F1"/>
<path fill-rule="evenodd" clip-rule="evenodd" d="M10.9175 9.36829C9.98637 9.36829 9.24001 10.1146 9.24001 11.0458C9.24001 11.9422 9.92946 12.6647 10.8022 12.7213C10.8765 12.7147 10.9525 12.7148 11.0267 12.7216C11.8909 12.672 12.5873 11.9481 12.595 11.0433C12.5937 10.1207 11.8461 9.36829 10.9175 9.36829ZM7.86501 11.0458C7.86501 9.35526 9.22697 7.99329 10.9175 7.99329C12.6098 7.99329 13.97 9.36616 13.97 11.0458V11.0507H13.97C13.9582 12.6953 12.6635 14.0504 11.0199 14.098C10.9842 14.099 10.9484 14.0973 10.9129 14.0928C10.8758 14.0975 10.8384 14.0992 10.8009 14.0978C9.16653 14.0386 7.86501 12.6995 7.86501 11.0458Z" fill="#F1F1F1"/>
<path fill-rule="evenodd" clip-rule="evenodd" d="M11.0034 14.882C12.0746 14.882 13.1826 15.1488 14.0489 15.7262C14.8385 16.2526 15.3244 17.0154 15.3244 17.8658C15.3244 18.716 14.8386 19.4787 14.0492 20.0051C13.1793 20.5866 12.0716 20.8564 11 20.8564C9.92842 20.8564 8.82073 20.5866 7.95085 20.0051C7.16142 19.4787 6.67563 18.716 6.67563 17.8658C6.67563 17.0154 7.16154 16.2526 7.95115 15.7262L7.9528 15.7251L7.9528 15.7251C8.8227 15.1488 9.93212 14.882 11.0034 14.882ZM8.71305 16.8708C8.21079 17.206 8.05063 17.5796 8.05063 17.8658C8.05063 18.1521 8.21096 18.526 8.71386 18.8612L8.71468 18.8618C9.31139 19.2608 10.1376 19.4814 11 19.4814C11.8624 19.4814 12.6886 19.2608 13.2853 18.8618L13.2861 18.8612C13.789 18.526 13.9494 18.1521 13.9494 17.8658C13.9494 17.5795 13.789 17.2056 13.2861 16.8703C12.6949 16.4761 11.8688 16.257 11.0034 16.257C10.1387 16.257 9.30975 16.4758 8.71305 16.8708Z" fill="#F1F1F1"/>
</svg>
