<svg width="22" height="22" viewBox="0 0 22 22" fill="none" xmlns="http://www.w3.org/2000/svg">
<path fill-rule="evenodd" clip-rule="evenodd" d="M4.3722 4.37216C5.38921 3.35514 6.89886 2.97913 8.8 2.97913H13.2C15.1011 2.97913 16.6108 3.35514 17.6278 4.37216C18.6448 5.38917 19.0208 6.89882 19.0208 8.79996C19.0208 9.17966 18.713 9.48746 18.3333 9.48746C17.9536 9.48746 17.6458 9.17966 17.6458 8.79996C17.6458 7.03443 17.2885 5.97742 16.6555 5.34443C16.0225 4.71144 14.9655 4.35413 13.2 4.35413H8.8C7.03447 4.35413 5.97745 4.71144 5.34447 5.34443C4.71148 5.97742 4.35416 7.03443 4.35416 8.79996V13.2C4.35416 14.9655 4.71148 16.0225 5.34447 16.6555C5.97745 17.2885 7.03447 17.6458 8.8 17.6458C9.17969 17.6458 9.4875 17.9536 9.4875 18.3333C9.4875 18.713 9.17969 19.0208 8.8 19.0208C6.89886 19.0208 5.38921 18.6448 4.3722 17.6278C3.35518 16.6107 2.97916 15.1011 2.97916 13.2V8.79996C2.97916 6.89882 3.35518 5.38917 4.3722 4.37216Z" fill="#F1F1F1"/>
<path fill-rule="evenodd" clip-rule="evenodd" d="M6.67532 6.67528C7.38296 5.96764 8.41136 5.72913 9.625 5.72913H12.375C13.7134 5.72913 14.8274 6.01669 15.5281 6.90854C15.7627 7.2071 15.7108 7.6393 15.4123 7.87389C15.1137 8.10847 14.6815 8.05661 14.4469 7.75804C14.1393 7.36656 13.5666 7.10413 12.375 7.10413H9.625C8.54697 7.10413 7.9712 7.32394 7.64759 7.64755C7.32398 7.97117 7.10416 8.54693 7.10416 9.62496V12.375C7.10416 13.5667 7.36675 14.1422 7.75269 14.4499C8.0496 14.6865 8.09844 15.1191 7.86177 15.416C7.6251 15.7129 7.19255 15.7617 6.89564 15.5251C6.01658 14.8244 5.72916 13.7132 5.72916 12.375V9.62496C5.72916 8.41132 5.96768 7.38292 6.67532 6.67528Z" fill="#F1F1F1"/>
<path fill-rule="evenodd" clip-rule="evenodd" d="M7.3425 1.14581C7.72219 1.14581 8.03 1.45362 8.03 1.83331V3.66665C8.03 4.04634 7.72219 4.35415 7.3425 4.35415C6.9628 4.35415 6.655 4.04634 6.655 3.66665V1.83331C6.655 1.45362 6.9628 1.14581 7.3425 1.14581Z" fill="#F1F1F1"/>
<path fill-rule="evenodd" clip-rule="evenodd" d="M11 1.14581C11.3797 1.14581 11.6875 1.45362 11.6875 1.83331V3.66665C11.6875 4.04634 11.3797 4.35415 11 4.35415C10.6203 4.35415 10.3125 4.04634 10.3125 3.66665V1.83331C10.3125 1.45362 10.6203 1.14581 11 1.14581Z" fill="#F1F1F1"/>
<path fill-rule="evenodd" clip-rule="evenodd" d="M14.6667 1.14581C15.0464 1.14581 15.3542 1.45362 15.3542 1.83331V3.66665C15.3542 4.04634 15.0464 4.35415 14.6667 4.35415C14.287 4.35415 13.9792 4.04634 13.9792 3.66665V1.83331C13.9792 1.45362 14.287 1.14581 14.6667 1.14581Z" fill="#F1F1F1"/>
<path fill-rule="evenodd" clip-rule="evenodd" d="M17.6458 7.33331C17.6458 6.95362 17.9536 6.64581 18.3333 6.64581H20.1667C20.5464 6.64581 20.8542 6.95362 20.8542 7.33331C20.8542 7.71301 20.5464 8.02081 20.1667 8.02081H18.3333C17.9536 8.02081 17.6458 7.71301 17.6458 7.33331Z" fill="#F1F1F1"/>
<path fill-rule="evenodd" clip-rule="evenodd" d="M7.3425 17.6458C7.72219 17.6458 8.03 17.9536 8.03 18.3333V20.1666C8.03 20.5463 7.72219 20.8541 7.3425 20.8541C6.9628 20.8541 6.655 20.5463 6.655 20.1666V18.3333C6.655 17.9536 6.9628 17.6458 7.3425 17.6458Z" fill="#F1F1F1"/>
<path fill-rule="evenodd" clip-rule="evenodd" d="M1.14583 7.33331C1.14583 6.95362 1.45364 6.64581 1.83333 6.64581H3.66667C4.04636 6.64581 4.35417 6.95362 4.35417 7.33331C4.35417 7.71301 4.04636 8.02081 3.66667 8.02081H1.83333C1.45364 8.02081 1.14583 7.71301 1.14583 7.33331Z" fill="#F1F1F1"/>
<path fill-rule="evenodd" clip-rule="evenodd" d="M1.14583 11C1.14583 10.6203 1.45364 10.3125 1.83333 10.3125H3.66667C4.04636 10.3125 4.35417 10.6203 4.35417 11C4.35417 11.3797 4.04636 11.6875 3.66667 11.6875H1.83333C1.45364 11.6875 1.14583 11.3797 1.14583 11Z" fill="#F1F1F1"/>
<path fill-rule="evenodd" clip-rule="evenodd" d="M1.14583 14.6666C1.14583 14.2869 1.45364 13.9791 1.83333 13.9791H3.66667C4.04636 13.9791 4.35417 14.2869 4.35417 14.6666C4.35417 15.0463 4.04636 15.3541 3.66667 15.3541H1.83333C1.45364 15.3541 1.14583 15.0463 1.14583 14.6666Z" fill="#F1F1F1"/>
<path fill-rule="evenodd" clip-rule="evenodd" d="M15.3175 14.8133C14.8922 14.8133 14.5475 15.158 14.5475 15.5833C14.5475 16.0086 14.8922 16.3533 15.3175 16.3533C15.7428 16.3533 16.0875 16.0086 16.0875 15.5833C16.0875 15.158 15.7428 14.8133 15.3175 14.8133ZM13.1725 15.5833C13.1725 14.3986 14.1328 13.4383 15.3175 13.4383C16.5022 13.4383 17.4625 14.3986 17.4625 15.5833C17.4625 16.7679 16.5022 17.7283 15.3175 17.7283C14.1328 17.7283 13.1725 16.7679 13.1725 15.5833Z" fill="#F1F1F1"/>
<path fill-rule="evenodd" clip-rule="evenodd" d="M13.8651 11.755C13.8208 11.6807 13.7417 11.675 13.6983 11.7008L13.6927 11.7041L12.8496 12.1951C12.7444 12.2543 12.7038 12.3967 12.7672 12.5053L12.7685 12.5075C13.0619 13.0148 13.1746 13.6346 12.8655 14.1719C12.556 14.7098 11.963 14.9233 11.3758 14.9233C11.2514 14.9233 11.1467 15.028 11.1467 15.1525V16.005C11.1467 16.1457 11.2555 16.2362 11.3633 16.2343L11.3758 16.2341C11.963 16.2341 12.556 16.4477 12.8655 16.9856C13.1746 17.5229 13.0619 18.1427 12.7685 18.65L12.7672 18.6522C12.7077 18.7542 12.7368 18.8964 12.8586 18.9676C12.8587 18.9677 12.8585 18.9676 12.8586 18.9676L13.6892 19.4514C13.7488 19.4845 13.8282 19.4645 13.8651 19.4025L13.8663 19.4005L13.9187 19.3131C14.2119 18.8091 14.6906 18.4044 15.3083 18.4044C15.9261 18.4044 16.4048 18.8091 16.698 19.3132L16.7516 19.4025C16.7958 19.4768 16.875 19.4825 16.9184 19.4567L16.924 19.4534L17.7671 18.9624C17.8723 18.9032 17.9128 18.7608 17.8495 18.6522L17.8482 18.65C17.5548 18.1427 17.442 17.5229 17.7512 16.9856C18.0606 16.4477 18.6537 16.2342 19.2408 16.2342C19.3653 16.2342 19.47 16.1295 19.47 16.005V15.1525C19.47 15.028 19.3653 14.9233 19.2408 14.9233C18.6537 14.9233 18.0606 14.7098 17.7512 14.1719C17.442 13.6346 17.5548 13.0148 17.8482 12.5075L17.8495 12.5053C17.909 12.4032 17.8798 12.261 17.7579 12.1898C17.7579 12.1897 17.7579 12.1898 17.7579 12.1898L16.9275 11.7061C16.8678 11.673 16.7885 11.693 16.7516 11.755L16.7504 11.7571L16.698 11.8444C16.4048 12.3484 15.9261 12.7531 15.3083 12.7531C14.6906 12.7531 14.2119 12.3484 13.9187 11.8444L13.8651 11.755ZM15.0459 11.0505C14.6321 10.3567 13.724 10.0878 12.9983 10.5173L12.1703 10.9995C11.3999 11.4366 11.1308 12.4272 11.5787 13.1967C11.6785 13.3696 11.6767 13.4579 11.6721 13.4852C11.6506 13.5029 11.5751 13.5483 11.3758 13.5483C10.492 13.5483 9.77167 14.2686 9.77167 15.1525V16.005C9.77167 16.8884 10.4837 17.6212 11.3806 17.6092C11.5763 17.6099 11.6508 17.6547 11.6721 17.6723C11.6767 17.6996 11.6785 17.7879 11.5787 17.9608C11.126 18.7385 11.4086 19.7136 12.1661 20.1555L13.0007 20.6416L13.0056 20.6444C13.7153 21.05 14.6244 20.8136 15.0459 20.107C15.0461 20.1066 15.0464 20.1062 15.0466 20.1058L15.1004 20.0162L15.106 20.0067C15.2052 19.8351 15.2819 19.7916 15.3083 19.7814C15.3348 19.7916 15.4115 19.8351 15.5107 20.0067L15.5701 20.1058C15.5703 20.1062 15.5705 20.1066 15.5708 20.107C15.9846 20.8008 16.8927 21.0697 17.6184 20.6402L18.4463 20.158C19.2168 19.7209 19.4858 18.7303 19.038 17.9608C18.9382 17.788 18.94 17.6996 18.9446 17.6723C18.966 17.6546 19.0416 17.6092 19.2408 17.6092C20.1247 17.6092 20.845 16.8889 20.845 16.005V15.1525C20.845 14.2686 20.1247 13.5483 19.2408 13.5483C19.0416 13.5483 18.966 13.5029 18.9446 13.4852C18.94 13.4579 18.9382 13.3695 19.038 13.1966C19.4906 12.419 19.208 11.4438 18.4506 11.002L17.616 10.5159L17.6111 10.5131C16.9013 10.1075 15.9922 10.3439 15.5708 11.0505C15.5705 11.0509 15.5703 11.0513 15.5701 11.0517L15.5163 11.1413L15.5107 11.1508C15.4115 11.3224 15.3348 11.3659 15.3083 11.3761C15.2819 11.3659 15.2052 11.3224 15.106 11.1508L15.0466 11.0517C15.0464 11.0513 15.0461 11.0509 15.0459 11.0505Z" fill="#F1F1F1"/>
</svg>
